<svg xmlns="http://www.w3.org/2000/svg" width="19" height="22" viewBox="0 0 19 22">
  <metadata><?xpacket begin="﻿" id="W5M0MpCehiHzreSzNTczkc9d"?>
<x:xmpmeta xmlns:x="adobe:ns:meta/" x:xmptk="Adobe XMP Core 5.6-c138 79.159824, 2016/09/14-01:09:01        ">
   <rdf:RDF xmlns:rdf="http://www.w3.org/1999/02/22-rdf-syntax-ns#">
      <rdf:Description rdf:about=""/>
   </rdf:RDF>
</x:xmpmeta>
                                                                                                    
                                                                                                    
                                                                                                    
                                                                                                    
                                                                                                    
                                                                                                    
                                                                                                    
                                                                                                    
                                                                                                    
                                                                                                    
                                                                                                    
                                                                                                    
                                                                                                    
                                                                                                    
                                                                                                    
                                                                                                    
                                                                                                    
                                                                                                    
                                                                                                    
                                                                                                    
                           
<?xpacket end="w"?></metadata>
<defs>
    <style>
      .cls-1 {
        fill: #cdcdcd;
        fill-rule: evenodd;
      }
    </style>
  </defs>
  <path id="Exit" class="cls-1" d="M124.586,850.063a1.377,1.377,0,1,1-1.357,1.376A1.366,1.366,0,0,1,124.586,850.063Zm2.679,8.239a11.1,11.1,0,0,1-2.27-1.489c-0.3-.46-0.757.11-0.757,0.11l-1,2.373v0.767l3.376,6.657a1.124,1.124,0,0,1-.807.87,1.251,1.251,0,0,1-1.173-.768c-0.757-1.351-2.99-5.591-2.99-5.591-0.454-.691-0.8,2.009-0.8,2.009s0.138,1.935-.615,1.935l-4.754.018a1.022,1.022,0,0,1-1.051-.994,1.056,1.056,0,0,1,1.066-1.074s1.6,0.012,3.165.012a0.618,0.618,0,0,0,.518-0.54l0-3.429a10.464,10.464,0,0,1,1.7-3.6c0.12-.377-0.519-0.357-0.519-0.357l-0.431.019a1.533,1.533,0,0,0-.657.613l-1.479,1.983a0.926,0.926,0,0,1-.827.5c-0.837,0-.383-1-0.383-1s1.827-3.038,1.881-3.122a1.114,1.114,0,0,1,.751-0.691l3.176,0.005c2.321,0,2.939,1.249,2.939,1.249a10.144,10.144,0,0,0,2.623,2.188l0.7,0,0.01-6.918a0.662,0.662,0,0,0-.7-0.655H116.382a0.617,0.617,0,0,0-.621.712V862.45h-1.338V850.032a1.769,1.769,0,0,1,1.9-2.027l11.611-.01a1.973,1.973,0,0,1,2.059,1.98v16.156s0.19,0.634-1.063,1.884l-1.094,1.389a2.586,2.586,0,0,1-1.006.6H111.507s-0.961.057-.226-0.573c0,0,2.932-3.462,3.011-3.552h1.469v1.113l-0.982.989s-0.769.673-.042,0.673l11.134-.022a1.335,1.335,0,0,0,1.13-.436l1-1.286a2.373,2.373,0,0,0,.667-1.465l-0.032-7.129Z" transform="translate(-111 -848)"/>
</svg>
