<svg xmlns="http://www.w3.org/2000/svg" width="19" height="18.969" viewBox="0 0 19 18.969">
  <metadata><?xpacket begin="﻿" id="W5M0MpCehiHzreSzNTczkc9d"?>
<x:xmpmeta xmlns:x="adobe:ns:meta/" x:xmptk="Adobe XMP Core 5.6-c138 79.159824, 2016/09/14-01:09:01        ">
   <rdf:RDF xmlns:rdf="http://www.w3.org/1999/02/22-rdf-syntax-ns#">
      <rdf:Description rdf:about=""/>
   </rdf:RDF>
</x:xmpmeta>
                                                                                                    
                                                                                                    
                                                                                                    
                                                                                                    
                                                                                                    
                                                                                                    
                                                                                                    
                                                                                                    
                                                                                                    
                                                                                                    
                                                                                                    
                                                                                                    
                                                                                                    
                                                                                                    
                                                                                                    
                                                                                                    
                                                                                                    
                                                                                                    
                                                                                                    
                                                                                                    
                           
<?xpacket end="w"?></metadata>
<defs>
    <style>
      .cls-1 {
        fill: #e43721;
        fill-rule: evenodd;
      }
    </style>
  </defs>
  <path id="Phone_red" class="cls-1" d="M150.055,472.742a19.871,19.871,0,0,0,16.2,16.191,1.548,1.548,0,0,0,1.758-1.206l0.9-2.924a1.511,1.511,0,0,0-.736-1.966l-4.24-1.3a1.279,1.279,0,0,0-1.331.5l-1.04,1.325a0.809,0.809,0,0,1-1.093.166,18.4,18.4,0,0,1-5.018-5.014,0.806,0.806,0,0,1,.166-1.091l1.327-1.041a1.276,1.276,0,0,0,.5-1.328l-1.3-4.237a1.511,1.511,0,0,0-1.967-.735l-2.927.894A1.548,1.548,0,0,0,150.055,472.742Z" transform="translate(-150 -470)"/>
</svg>
