<svg xmlns="http://www.w3.org/2000/svg" width="18" height="18" viewBox="0 0 18 18">
  <metadata><?xpacket begin="﻿" id="W5M0MpCehiHzreSzNTczkc9d"?>
<x:xmpmeta xmlns:x="adobe:ns:meta/" x:xmptk="Adobe XMP Core 5.6-c138 79.159824, 2016/09/14-01:09:01        ">
   <rdf:RDF xmlns:rdf="http://www.w3.org/1999/02/22-rdf-syntax-ns#">
      <rdf:Description rdf:about=""/>
   </rdf:RDF>
</x:xmpmeta>
                                                                                                    
                                                                                                    
                                                                                                    
                                                                                                    
                                                                                                    
                                                                                                    
                                                                                                    
                                                                                                    
                                                                                                    
                                                                                                    
                                                                                                    
                                                                                                    
                                                                                                    
                                                                                                    
                                                                                                    
                                                                                                    
                                                                                                    
                                                                                                    
                                                                                                    
                                                                                                    
                           
<?xpacket end="w"?></metadata>
<defs>
    <style>
      .cls-1 {
        fill: #cdcdcd;
        fill-rule: evenodd;
      }
    </style>
  </defs>
  <path id="Settings" class="cls-1" d="M122,752.153a6.84,6.84,0,1,1-6.835,6.84A6.837,6.837,0,0,1,122,752.153Zm-0.015,2.159A4.688,4.688,0,1,1,117.3,759,4.687,4.687,0,0,1,121.989,754.312Zm0.017,0.742a3.963,3.963,0,1,1-3.961,3.963A3.961,3.961,0,0,1,122.006,755.054Zm1.792,10.231v1.281a1.439,1.439,0,0,1-1.438,1.44h-0.72a1.439,1.439,0,0,1-1.438-1.44V765.06m0-12.345v-1.282a1.439,1.439,0,0,1,1.438-1.439h0.72a1.439,1.439,0,0,1,1.438,1.439v1.507m4.483,4.261h1.281A1.438,1.438,0,0,1,131,758.64v0.72a1.438,1.438,0,0,1-1.438,1.439h-1.506m-12.337,0h-1.281A1.438,1.438,0,0,1,113,759.36v-0.72a1.438,1.438,0,0,1,1.438-1.439h1.506m11.772,4.979,0.905,0.906a1.44,1.44,0,0,1,0,2.036l-0.508.508a1.438,1.438,0,0,1-2.034,0l-1.065-1.065m-8.723-8.729-0.906-.906a1.44,1.44,0,0,1,0-2.036l0.509-.508a1.438,1.438,0,0,1,2.034,0l1.064,1.065m6.181-.159,0.906-.906a1.438,1.438,0,0,1,2.034,0l0.508,0.508a1.44,1.44,0,0,1,0,2.036L127.557,756m-8.724,8.729-0.905.906a1.438,1.438,0,0,1-2.034,0l-0.509-.508a1.44,1.44,0,0,1,0-2.036l1.065-1.065m5.516-4.831a1.81,1.81,0,1,1-1.809,1.81A1.809,1.809,0,0,1,121.966,757.19ZM122,758.651a0.36,0.36,0,1,1-.36.36A0.36,0.36,0,0,1,122,758.651Z" transform="translate(-113 -750)"/>
</svg>
