<svg xmlns="http://www.w3.org/2000/svg" width="23" height="17" viewBox="0 0 23 17">
  <metadata><?xpacket begin="﻿" id="W5M0MpCehiHzreSzNTczkc9d"?>
<x:xmpmeta xmlns:x="adobe:ns:meta/" x:xmptk="Adobe XMP Core 5.6-c138 79.159824, 2016/09/14-01:09:01        ">
   <rdf:RDF xmlns:rdf="http://www.w3.org/1999/02/22-rdf-syntax-ns#">
      <rdf:Description rdf:about=""/>
   </rdf:RDF>
</x:xmpmeta>
                                                                                                    
                                                                                                    
                                                                                                    
                                                                                                    
                                                                                                    
                                                                                                    
                                                                                                    
                                                                                                    
                                                                                                    
                                                                                                    
                                                                                                    
                                                                                                    
                                                                                                    
                                                                                                    
                                                                                                    
                                                                                                    
                                                                                                    
                                                                                                    
                                                                                                    
                                                                                                    
                           
<?xpacket end="w"?></metadata>
<defs>
    <style>
      .cls-1 {
        fill: #cdcdcd;
        fill-rule: evenodd;
      }
    </style>
  </defs>
  <path id="Users_2" data-name="Users 2" class="cls-1" d="M120.152,799.729c1.97,0,2.319,2.525,2.319,2.525v2.5a3.785,3.785,0,0,1-1.44,2.6,1.332,1.332,0,0,0-.018.522c0.071-.036-0.351,2.509,1.793,2.833a8.115,8.115,0,0,1,4.138,2.075c0.4,0.395.632,3.217,0.632,3.217H111s-0.023-2.291.678-3.217A8.992,8.992,0,0,1,116,810.707c1.813-.2,1.426-2.755,1.5-2.719a1.331,1.331,0,0,0-.017-0.522,5.32,5.32,0,0,1-1.428-2.92c0.018-1.384,0-2.292,0-2.292S116.263,799,118.455,799Zm5.212,10.962a3.325,3.325,0,0,0,.053-1.334,1.107,1.107,0,0,0-.015-0.433s-1.4-1.272-1.384-2.42,0-2.5,0-2.5,0.377-2.786,2.195-2.786l1.407,0.564c1.633,0,2.078,2.222,2.078,2.222v2.668a3.751,3.751,0,0,1-1.38,2.159,1.081,1.081,0,0,0-.014.432c0.058-.029-0.262,2.081,1.516,2.349a6.723,6.723,0,0,1,3.431,1.721,10.687,10.687,0,0,1,.75,2.637l-5.652-.016s0.045-2.767-.406-3.367A10.8,10.8,0,0,0,125.364,810.691Z" transform="translate(-111 -799)"/>
</svg>
